<?xml version="1.0"?><svg xmlns="http://www.w3.org/2000/svg" xmlns:xlink="http://www.w3.org/1999/xlink"><symbol fill="currentColor" viewBox="0 0 30 30" id="github"><path d="M15 3C8.373 3 3 8.373 3 15c0 5.623 3.872 10.328 9.092 11.63a1.751 1.751 0 0 1-.092-.583v-2.051h-1.508c-.821 0-1.551-.353-1.905-1.009-.393-.729-.461-1.844-1.435-2.526-.289-.227-.069-.486.264-.451.615.174 1.125.596 1.605 1.222.478.627.703.769 1.596.769.433 0 1.081-.025 1.691-.121.328-.833.895-1.6 1.588-1.962-3.996-.411-5.903-2.399-5.903-5.098 0-1.162.495-2.286 1.336-3.233-.276-.94-.623-2.857.106-3.587 1.798 0 2.885 1.166 3.146 1.481A8.993 8.993 0 0 1 15.495 9c1.036 0 2.024.174 2.922.483C18.675 9.17 19.763 8 21.565 8c.732.731.381 2.656.102 3.594.836.945 1.328 2.066 1.328 3.226 0 2.697-1.904 4.684-5.894 5.097C18.199 20.49 19 22.1 19 23.313v2.734c0 .104-.023.179-.035.268C23.641 24.676 27 20.236 27 15c0-6.627-5.373-12-12-12z"/></symbol><symbol viewBox="-2 -2 24 24" preserveAspectRatio="xMinYMin" class="bjam bjam-gitlab-circle" fill="currentColor" id="gitlab"><path d="M10 18a8 8 0 1 0 0-16 8 8 0 0 0 0 16zm0 2C4.477 20 0 15.523 0 10S4.477 0 10 0s10 4.477 10 10-4.477 10-10 10z"/><path d="M10 14.616 8.159 8.95h3.682L10 14.616zm0 0L5.578 8.95h2.58L10 14.616zM5.578 8.95 10 14.616l-4.843-3.518a.381.381 0 0 1-.138-.427l.56-1.722zm0 0 1.11-3.413a.19.19 0 0 1 .362 0L8.159 8.95h-2.58zM10 14.616l1.841-5.667h2.58L10 14.616zm4.422-5.667.56 1.722a.381.381 0 0 1-.14.427L10 14.616l4.422-5.667zm0 0h-2.58l1.108-3.413a.19.19 0 0 1 .363 0l1.109 3.413z"/></symbol></svg>